<svg id="visual" viewBox="0 0 1620 760" width="1620" height="760" xmlns="http://www.w3.org/2000/svg" xmlns:xlink="http://www.w3.org/1999/xlink" version="1.1"><rect x="0" y="0" width="1620" height="760" fill="#ffffff"></rect><path d="M0 463L54 402.2C108 341.3 216 219.7 324 204C432 188.3 540 278.7 648 298.7C756 318.7 864 268.3 972 286.2C1080 304 1188 390 1296 425C1404 460 1512 444 1566 436L1620 428L1620 0L1566 0C1512 0 1404 0 1296 0C1188 0 1080 0 972 0C864 0 756 0 648 0C540 0 432 0 324 0C216 0 108 0 54 0L0 0Z" fill="#6237C8" stroke-linecap="round" stroke-linejoin="miter"></path></svg>